<svg xmlns="http://www.w3.org/2000/svg" viewBox="0 0 32 32" role="img" aria-label="Junye">
  <rect width="32" height="32" rx="7" fill="#111114"/>
  <path
    fill="#d4d4d8"
    d="M21 7.5a5 5 0 1 0-9.9 1.2A4.2 4.2 0 0 1 21 7.5Z"
  />
  <path
    fill="#fff"
    d="M11 10.5c0-1.4 1-2.4 2.6-2.4h4.1c2.2 0 3.6 1.3 3.6 3.2 0 1.5-.7 2.5-1.9 3l2.4 6.2h-3.1l-2-5.4h-1.3v5.4h-3V10.5Zm3 4.6h1.1c.9 0 1.4-.5 1.4-1.3 0-.8-.5-1.2-1.4-1.2h-1.1v2.5Z"
  />
  <path
    fill="#a1a1aa"
    d="M22.2 8.8c.6-.9 1.6-1.3 2.6-1.1-.3 1.1-1.1 1.9-2.2 2.1-.5-1-.2-.7-.4-1Z"
  />
</svg>
